<svg xmlns="http://www.w3.org/2000/svg" version="1.1" xmlns:xlink="http://www.w3.org/1999/xlink" xmlns:svgjs="http://svgjs.dev/svgjs" width="1000" height="1000"><g clip-path="url(#SvgjsClipPath1062)"><rect width="1000" height="1000" fill="#ffffff"></rect><g transform="matrix(1.5625,0,0,1.5625,100,100)"><svg xmlns="http://www.w3.org/2000/svg" version="1.1" xmlns:xlink="http://www.w3.org/1999/xlink" xmlns:svgjs="http://svgjs.dev/svgjs" width="512" height="512"><svg fill="#000000" version="1.1" id="Layer_1" xmlns="http://www.w3.org/2000/svg" viewBox="0 0 512 512" xml:space="preserve">
<g>
	<g>
		<g>
			<path d="M381.388,412.735V172.408h57.469V151.51h-20.898V26.122c0-5.77-4.678-10.449-10.449-10.449h-73.143
				c-5.771,0-10.449,4.679-10.449,10.449v62.694H303.02V26.122c0-5.77-4.678-10.449-10.449-10.449h-73.143
				c-5.771,0-10.449,4.679-10.449,10.449v62.694h-20.898V26.122c0-5.77-4.678-10.449-10.449-10.449H104.49
				c-5.771,0-10.449,4.679-10.449,10.449V151.51H73.143v20.898h57.469v240.327H0v20.898h141.061h229.878H512v-20.898H381.388z
				 M292.571,412.735h-73.143v-83.592c0-5.762,4.687-10.449,10.449-10.449h52.245c5.762,0,10.449,4.687,10.449,10.449V412.735z
				 M360.49,250.775h-31.347v20.898h31.347v62.694h-26.122v20.898h26.122v57.469h-47.02v-83.592
				c0-17.285-14.062-31.347-31.347-31.347h-52.245c-17.285,0-31.347,14.062-31.347,31.347v83.592h-47.02v-26.122h26.122v-20.898
				H151.51v-41.796h26.122V303.02H151.51v-41.796h31.347v-20.898H151.51v-26.122h125.388v-20.898H151.51v-20.898h208.98V250.775z
				 M114.939,151.51V36.571h52.245v52.245h-31.347v20.898h41.796h41.796c5.771,0,10.449-4.679,10.449-10.449V36.571h52.245v52.245
				h-31.347v20.898h41.796h41.796c5.771,0,10.449-4.679,10.449-10.449V36.571h52.245v52.245h-31.347v20.898h31.347v41.796H114.939z"></path>
            <rect x="31.347" y="464.98" width="26.122" height="20.898"></rect>
            <rect x="94.041" y="454.531" width="26.122" height="20.898"></rect>
            <rect x="156.735" y="475.429" width="26.122" height="20.898"></rect>
            <rect x="219.429" y="454.531" width="26.122" height="20.898"></rect>
            <rect x="355.265" y="475.429" width="26.122" height="20.898"></rect>
            <rect x="292.571" y="454.531" width="26.122" height="20.898"></rect>
            <rect x="464.98" y="444.082" width="26.122" height="20.898"></rect>
            <rect x="412.735" y="464.98" width="26.122" height="20.898"></rect>
            <rect x="256" y="360.49" width="20.898" height="20.898"></rect>
            <rect x="235.102" y="250.775" width="41.796" height="20.898"></rect>
		</g>
	</g>
</g>
</svg></svg></g></g><defs><clipPath id="SvgjsClipPath1062"><rect width="1000" height="1000" x="0" y="0" rx="500" ry="500"></rect></clipPath></defs></svg>